<svg width="13" height="13" viewBox="0 0 13 13" fill="none" xmlns="http://www.w3.org/2000/svg">
<path fill-rule="evenodd" clip-rule="evenodd" d="M9.01025 8.33945L12 11.3292L11.3292 12L8.33945 9.01025C7.56541 9.63689 6.57961 10.0123 5.50613 10.0123C3.01746 10.0123 1 7.99479 1 5.50613C1 3.01746 3.01746 1 5.50613 1C7.99479 1 10.0123 3.01746 10.0123 5.50613C10.0123 6.57961 9.63689 7.56541 9.01025 8.33945ZM5.50613 9.0636C7.47087 9.0636 9.0636 7.47087 9.0636 5.50613C9.0636 3.54139 7.47087 1.94866 5.50613 1.94866C3.54139 1.94866 1.94866 3.54139 1.94866 5.50613C1.94866 7.47087 3.54139 9.0636 5.50613 9.0636Z" fill="#30466D" stroke="#30466D" stroke-width="0.3"/>
</svg>
